<?xml version="1.0" encoding="UTF-8"?>
<svg width="106px" height="106px" viewBox="0 0 106 106" version="1.1" xmlns="http://www.w3.org/2000/svg" xmlns:xlink="http://www.w3.org/1999/xlink">
    <!-- Generator: Sketch 55.1 (78136) - https://sketchapp.com -->
    <title>更多晒图</title>
    <desc>Created with Sketch.</desc>
    <g id="页面1" stroke="none" stroke-width="1" fill="none" fill-rule="evenodd">
        <g id="花粉晒图_滑动" transform="translate(-382.000000, -710.000000)">
            <g id="更多" transform="translate(310.000000, 601.000000)">
                <g id="更多晒图" transform="translate(72.000000, 109.000000)">
                    <circle id="椭圆形" fill="#FFFFFF" cx="53" cy="53" r="53"></circle>
                    <g id="speech-bubble" transform="translate(32.232143, 38.803571)" fill="#333333">
                        <g>
                            <path d="M33.0342857,17.8026316 L33.0342857,3.60789474 C33.0342857,1.64210526 31.3357143,0.0394736842 29.2522449,0.0394736842 L3.78204082,0.0394736842 C1.69857143,0.0394736842 0,1.64210526 0,3.60789474 L0,17.8026316 C0,19.7684211 1.69857143,21.3710526 3.78204082,21.3710526 L4.86142857,21.3710526 L4.86142857,25.65 C4.86142857,26.4394737 5.53918367,27.0789474 6.38428571,27.0789474 L6.38428571,27.0789474 C6.81938776,27.0789474 7.2377551,26.8973684 7.53061224,26.5815789 L12.3083673,21.3631579 L29.2606122,21.3631579 C31.3357143,21.3710526 33.0342857,19.7684211 33.0342857,17.8026316 Z M11.8314286,19.4368421 C11.5302041,19.4368421 11.2540816,19.5552632 11.0532653,19.7684211 L6.90306122,24.2921053 L6.90306122,20.4 C6.90306122,19.8631579 6.44285714,19.4289474 5.87387755,19.4289474 L3.78204082,19.4289474 C2.82816327,19.4289474 2.05,18.6947368 2.05,17.7947368 L2.05,3.60789474 C2.05,2.70789474 2.82816327,1.97368421 3.78204082,1.97368421 L29.2522449,1.97368421 C30.2061224,1.97368421 30.9842857,2.70789474 30.9842857,3.60789474 L30.9842857,17.8026316 C30.9842857,18.7026316 30.2061224,19.4368421 29.2522449,19.4368421 L11.8314286,19.4368421 L11.8314286,19.4368421 Z" id="形状" fill-rule="nonzero"></path>
                            <path d="M33.4442857,32.4315789 C33.7371429,32.7552632 34.1555102,32.9289474 34.5822449,32.9289474 C34.7579592,32.9289474 34.9420408,32.8973684 35.1177551,32.8342105 C35.7202041,32.6210526 36.105102,32.1 36.105102,31.4921053 L36.105102,27.2131579 L37.1844898,27.2131579 C39.2679592,27.2131579 40.9665306,25.6105263 40.9665306,23.6447368 L40.9665306,9.45 C40.9665306,7.48421053 39.2679592,5.88157895 37.1844898,5.88157895 C36.6155102,5.88157895 36.1553061,6.31578947 36.1553061,6.84473684 C36.1553061,7.38157895 36.6155102,7.81578947 37.1844898,7.81578947 C38.1383673,7.81578947 38.9165306,8.55 38.9165306,9.45 L38.9165306,23.6447368 C38.9165306,24.5447368 38.1383673,25.2789474 37.1844898,25.2789474 L35.0842857,25.2789474 C34.5153061,25.2789474 34.055102,25.7131579 34.055102,26.25 L34.055102,30.1421053 L29.904898,25.6184211 C29.712449,25.4052632 29.4279592,25.2868421 29.1267347,25.2868421 L13.7308163,25.2868421 C13.1618367,25.2868421 12.7016327,25.7210526 12.7016327,26.2578947 C12.7016327,26.7947368 13.1618367,27.2289474 13.7308163,27.2289474 L28.6581633,27.2289474 L33.4442857,32.4315789 Z" id="路径" fill-rule="nonzero"></path>
                            <ellipse id="椭圆形" fill-rule="nonzero" cx="16.5171429" cy="11.0447368" rx="1.22163265" ry="1.15263158"></ellipse>
                            <ellipse id="椭圆形" fill-rule="nonzero" cx="20.6087755" cy="11.0447368" rx="1.22163265" ry="1.15263158"></ellipse>
                            <ellipse id="椭圆形" fill-rule="nonzero" cx="12.4255102" cy="11.0447368" rx="1.22163265" ry="1.15263158"></ellipse>
                        </g>
                    </g>
                </g>
            </g>
        </g>
    </g>
</svg>