<?xml version="1.0" encoding="UTF-8"?>
<svg width="30px" height="30px" viewBox="0 0 30 30" version="1.1" xmlns="http://www.w3.org/2000/svg" xmlns:xlink="http://www.w3.org/1999/xlink">
    <!-- Generator: Sketch 55.1 (78136) - https://sketchapp.com -->
    <title>magnifying-glass (1)</title>
    <desc>Created with Sketch.</desc>
    <g id="页面1" stroke="none" stroke-width="1" fill="none" fill-rule="evenodd">
        <g id="搜索结果" transform="translate(-50.000000, -194.000000)" fill="#183F36" fill-rule="nonzero">
            <g id="magnifying-glass-(1)" transform="translate(50.000000, 194.000000)">
                <path d="M22.0156025,19.3641453 C23.4918671,17.3481742 24.3748909,14.8719252 24.3748909,12.1874745 C24.3748909,5.46753227 18.9073586,0 12.1874164,0 C5.46747408,0 0,5.46753227 0,12.1874745 C0,18.9074168 5.46753227,24.3749491 12.1874745,24.3749491 C14.8719252,24.3749491 17.348407,23.4918089 19.364378,22.0155443 L27.3486591,29.9998254 L30,27.3484846 C30,27.3484264 22.0156025,19.3641453 22.0156025,19.3641453 L22.0156025,19.3641453 Z M12.1874745,20.6249345 C7.53476815,20.6249345 3.75001455,16.8401809 3.75001455,12.1874745 C3.75001455,7.53476815 7.53476815,3.75001455 12.1874745,3.75001455 C16.8401809,3.75001455 20.6249345,7.53476815 20.6249345,12.1874745 C20.6249345,16.8401809 16.8401227,20.6249345 12.1874745,20.6249345 Z" id="形状"></path>
            </g>
        </g>
    </g>
</svg>